<svg width="91" height="24" viewBox="0 0 91 24" fill="none" xmlns="http://www.w3.org/2000/svg">
  <g clip-path="url(#clip0_1853_126872)">
    <path fill-rule="evenodd" clip-rule="evenodd" d="M43 24H67.2591L91 0H43V24" fill="#AAB7D4" />
    <path fill-rule="evenodd" clip-rule="evenodd"
      d="M71.4874 4.79942H66.7469L66.7627 16.0688L62.6347 4.79516H58.5416L55.0178 14.2101C54.6432 11.8144 52.1927 10.9877 50.2646 10.3685C48.9913 9.95516 47.64 9.34716 47.6537 8.67516C47.6642 8.12369 48.3766 7.61222 49.7923 7.68849C50.7421 7.74022 51.5811 7.81756 53.2501 8.63249L54.8912 5.74182C53.3694 4.95889 51.265 4.46449 49.5396 4.46289H49.529C47.517 4.46289 45.8417 5.12156 44.8032 6.20689C44.0792 6.96422 43.6888 7.92742 43.6729 8.99249C43.6465 10.4581 44.1779 11.497 45.2945 12.3274C46.2379 13.0261 47.4447 13.4794 48.508 13.8122C49.8192 14.2229 50.8904 14.5802 50.8772 15.3408C50.8667 15.6181 50.7632 15.8773 50.5659 16.0864C50.2387 16.4277 49.7374 16.5557 49.0436 16.5696C47.7049 16.5984 46.7128 16.3856 45.1319 15.441L43.6719 18.369C45.2512 19.2768 46.9276 19.7322 48.8325 19.7322L49.261 19.729C50.9189 19.6986 52.2644 19.297 53.3335 18.4277C53.3947 18.3781 53.4496 18.328 53.5066 18.2773L53.3272 19.2117L57.3269 19.1989L58.0445 17.3418C58.7991 17.6021 59.6571 17.7461 60.5679 17.7461C61.4554 17.7461 62.2902 17.6096 63.0305 17.3642L63.5307 19.1989L70.707 19.2058L70.7244 14.9722H72.2515C75.9426 14.9722 78.1245 13.0736 78.1245 9.88956C78.1233 6.34342 76.0022 4.79889 71.4875 4.79889L71.4874 4.79942ZM60.5678 14.4325C60.0164 14.4325 59.4993 14.3354 59.0545 14.1648L60.551 9.38876H60.58L62.0522 14.1781C61.6089 14.3381 61.104 14.4325 60.5673 14.4325H60.5678ZM71.765 11.6885H70.7234V7.83942H71.7655C73.1533 7.83942 74.2614 8.30662 74.2614 9.73916C74.2602 11.2218 73.1533 11.6885 71.7655 11.6885"
      fill="white" />
  </g>
  <defs>
    <clipPath id="clip0_1853_126872">
      <rect width="48" height="24" fill="white" transform="translate(43)" />
    </clipPath>
  </defs>
</svg>