<svg width="36" height="36" viewBox="0 0 36 36" fill="none" xmlns="http://www.w3.org/2000/svg">
  <rect x="0.5" y="0.5" width="35" height="35" rx="17.5" stroke="#A770D7" />
  <rect x="2" y="2" width="32" height="32" rx="16" fill="#A770D7" />

  <path
    d="M25.5978 24.489C25.5735 24.489 25.5509 24.4907 25.5265 24.4942L21.2569 25.0468C21.0379 25.0746 20.885 24.8348 21.0031 24.6471C21.0674 24.5481 21.13 24.4473 21.1925 24.3465C21.3576 24.0789 21.137 23.7227 20.8311 23.7227C20.8102 23.7227 20.7894 23.7244 20.7668 23.7279L15.1712 24.5689L14.5022 24.6697L12.6776 24.9443C12.4708 24.9756 12.3317 25.1511 12.3491 25.3614C12.3561 25.4552 12.3943 25.5438 12.4551 25.6099C12.5264 25.6881 12.6254 25.7315 12.7332 25.7315C12.754 25.7315 12.7749 25.7298 12.7975 25.7263L19.467 24.7236C19.6946 24.6889 19.851 24.9461 19.7172 25.1337C19.6738 25.1928 19.6303 25.2536 19.5869 25.3127C19.467 25.4761 19.4948 25.7489 19.6338 25.8897C19.705 25.9626 19.7954 26.0009 19.891 26.0009C19.9014 26.0009 19.9136 26.0009 19.924 25.9991H19.9257H19.9275L25.6846 25.2658H25.6864H25.6881C25.7872 25.2502 25.8741 25.1928 25.9314 25.1042C25.994 25.0069 26.0166 24.887 25.9888 24.7792C25.9436 24.6037 25.7907 24.489 25.5978 24.489Z"
    fill="white" />
  <path
    d="M23.1359 13.3283C23.5999 12.7774 23.5287 11.9555 22.9778 11.4915L21.5685 10.3064C21.0176 9.84237 20.1956 9.91362 19.7316 10.4645L19.3028 10.9735C19.2316 11.058 19.2424 11.1843 19.327 11.2554L22.4252 13.8617C22.5096 13.9328 22.6357 13.922 22.7069 13.8376L23.1359 13.3283Z"
    fill="white" />
  <path
    d="M21.8244 14.8773C22.0021 14.6659 21.9748 14.3507 21.7636 14.1729L19.1245 11.9529C18.9132 11.7751 18.5976 11.8023 18.4199 12.0138L17.9095 12.6211C17.7318 12.8324 17.7591 13.1477 17.9703 13.3254L20.6094 15.5455C20.8207 15.7233 21.1363 15.696 21.314 15.4846L21.8244 14.8773Z"
    fill="white" />
  <path
    d="M10.0024 25.2476C9.99375 25.3657 10.1032 25.4578 10.2179 25.4283L11.0781 25.2111L10.0667 24.3596L10.0024 25.2476Z"
    fill="white" />
  <path
    d="M14.1144 24.0285L20.3753 16.5911C20.4465 16.5066 20.4356 16.3804 20.3511 16.3092L17.2529 13.7029C17.1684 13.6318 17.0423 13.6427 16.9711 13.7271L10.7102 21.163C10.592 21.3038 10.5208 21.4775 10.5086 21.66L10.3574 23.7592L11.6225 24.8245L13.6609 24.3118C13.8382 24.2666 13.9963 24.1676 14.1144 24.0285Z"
    fill="white" />
</svg>