<svg width="40" height="40" viewBox="0 0 40 40" fill="none" xmlns="http://www.w3.org/2000/svg">
    <path d="M37.7365 5.07227H2.21752C0.974063 5.07227 0 6.02201 0 7.23446V32.6387C0 33.8798 1.01556 34.9282 2.21752 34.9282H37.7366C38.9635 34.9282 40.0001 33.8798 40.0001 32.6387V7.23446C40 6.02201 39.0058 5.07227 37.7365 5.07227ZM3.93487 22.0856C2.77256 22.0856 1.83032 21.1434 1.83032 19.981C1.83032 18.8187 2.77256 17.8764 3.93487 17.8764C5.09718 17.8764 6.03942 18.8187 6.03942 19.981C6.03942 21.1434 5.09718 22.0856 3.93487 22.0856ZM35.0432 30.6681C35.0432 31.2373 34.591 31.7005 34.0352 31.7005H8.70559C8.15481 31.7005 7.72334 31.247 7.72334 30.6681V9.20518C7.72334 8.63296 8.15481 8.18466 8.70559 8.18466H34.0352C34.591 8.18466 35.0432 8.64241 35.0432 9.20518V30.6681Z"
          fill="#ACB4C3"/>
</svg>
